# xmcd
#
# Track frame offsets:
#	150
#	16105
#	29647
#	44222
#	56897
#	70307
#	80190
#	91610
#	109270
#	121995
#	131727
#	148692
#
# Disc length: 2121 seconds
#
# Revision: 0
# Processed by: cddbd v1.4PL0 Copyright (c) Steve Scherf et al.
# Submitted via: dBpowerAMP V4.0
#
DISCID=b308470c
DTITLE=Lillian Askeland - Contryjente
DYEAR=1900
DGENRE=
TTITLE0=Gi meg en kjær gammel sang
TTITLE1=Let them walk
TTITLE2=En deiig dag
TTITLE3=Contryjente
TTITLE4=Ungen vår
TTITLE5=Min røde paraply
TTITLE6=Himelens porter
TTITLE7=Blue bayou
TTITLE8=Ta fra han gitaren
TTITLE9=Ut i min hage
TTITLE10=Vinden
TTITLE11=Hva har jeg igjen
EXTD=Lillian Askeland  \nContryjente 
EXTT0=
EXTT1=
EXTT2=
EXTT3=
EXTT4=
EXTT5=
EXTT6=
EXTT7=
EXTT8=
EXTT9=
EXTT10=
EXTT11=
PLAYORDER=
